<?xml version="1.0" encoding="UTF-8" standalone="no"?>
<!-- Created with Inkscape (http://www.inkscape.org/) -->

<svg
   xmlns:dc="http://purl.org/dc/elements/1.1/"
   xmlns:cc="http://creativecommons.org/ns#"
   xmlns:rdf="http://www.w3.org/1999/02/22-rdf-syntax-ns#"
   xmlns:svg="http://www.w3.org/2000/svg"
   xmlns="http://www.w3.org/2000/svg"
   xmlns:xlink="http://www.w3.org/1999/xlink"
   xmlns:sodipodi="http://sodipodi.sourceforge.net/DTD/sodipodi-0.dtd"
   xmlns:inkscape="http://www.inkscape.org/namespaces/inkscape"
   width="800"
   height="1100"
   id="svg2"
   version="1.1"
   inkscape:version="0.48.2 r9819"
   sodipodi:docname="knight.svg"
   inkscape:export-filename="/home/thane/Knight Night/knight.png"
   inkscape:export-xdpi="8.9410048"
   inkscape:export-ydpi="8.9410048">
  <defs
     id="defs4">
    <linearGradient
       id="linearGradient3957">
      <stop
         style="stop-color:#ff0000;stop-opacity:1;"
         offset="0"
         id="stop3959" />
      <stop
         style="stop-color:#ff0000;stop-opacity:1;"
         offset="1"
         id="stop3961" />
    </linearGradient>
    <linearGradient
       id="linearGradient3869">
      <stop
         style="stop-color:#fb9551;stop-opacity:1;"
         offset="0"
         id="stop3871" />
      <stop
         style="stop-color:#ffbf94;stop-opacity:1;"
         offset="1"
         id="stop3873" />
    </linearGradient>
    <linearGradient
       id="linearGradient4366">
      <stop
         style="stop-color:#ffb380;stop-opacity:1;"
         offset="0"
         id="stop4368" />
      <stop
         style="stop-color:#ffccaa;stop-opacity:1;"
         offset="1"
         id="stop4370" />
    </linearGradient>
    <linearGradient
       inkscape:collect="always"
       xlink:href="#linearGradient4366"
       id="linearGradient3056"
       gradientUnits="userSpaceOnUse"
       x1="217.00864"
       y1="357.4469"
       x2="335.26614"
       y2="256.25751" />
    <linearGradient
       inkscape:collect="always"
       xlink:href="#linearGradient4366"
       id="linearGradient3058"
       gradientUnits="userSpaceOnUse"
       x1="534.92084"
       y1="260.61151"
       x2="512.17322"
       y2="267.92639" />
    <linearGradient
       inkscape:collect="always"
       xlink:href="#linearGradient3869"
       id="linearGradient3083"
       gradientUnits="userSpaceOnUse"
       x1="379.31033"
       y1="472.18976"
       x2="381.89655"
       y2="488.56909" />
    <linearGradient
       inkscape:collect="always"
       xlink:href="#linearGradient3869"
       id="linearGradient3055"
       gradientUnits="userSpaceOnUse"
       x1="379.31033"
       y1="472.18976"
       x2="381.89655"
       y2="488.56909" />
    <linearGradient
       inkscape:collect="always"
       xlink:href="#linearGradient3869"
       id="linearGradient3081"
       gradientUnits="userSpaceOnUse"
       x1="379.31033"
       y1="472.18976"
       x2="381.89655"
       y2="488.56909" />
    <linearGradient
       inkscape:collect="always"
       xlink:href="#linearGradient3869"
       id="linearGradient3094"
       gradientUnits="userSpaceOnUse"
       x1="379.31033"
       y1="472.18976"
       x2="381.89655"
       y2="488.56909" />
    <linearGradient
       inkscape:collect="always"
       xlink:href="#linearGradient3869"
       id="linearGradient3101"
       gradientUnits="userSpaceOnUse"
       x1="379.31033"
       y1="472.18976"
       x2="381.89655"
       y2="488.56909"
       gradientTransform="matrix(0.9362177,0,0,0.9362177,10.056123,-35.082084)" />
    <linearGradient
       inkscape:collect="always"
       xlink:href="#linearGradient3957"
       id="linearGradient3963"
       x1="521.18645"
       y1="724.54585"
       x2="558.98008"
       y2="724.54585"
       gradientUnits="userSpaceOnUse" />
  </defs>
  <sodipodi:namedview
     id="base"
     pagecolor="#ffffff"
     bordercolor="#666666"
     borderopacity="1.0"
     inkscape:pageopacity="0.0"
     inkscape:pageshadow="2"
     inkscape:zoom="0.20506097"
     inkscape:cx="-143.69875"
     inkscape:cy="346.19571"
     inkscape:document-units="px"
     inkscape:current-layer="layer6"
     showgrid="false"
     inkscape:window-width="1366"
     inkscape:window-height="716"
     inkscape:window-x="-8"
     inkscape:window-y="-8"
     inkscape:window-maximized="1" />
  <metadata
     id="metadata7">
    <rdf:RDF>
      <cc:Work
         rdf:about="">
        <dc:format>image/svg+xml</dc:format>
        <dc:type
           rdf:resource="http://purl.org/dc/dcmitype/StillImage" />
        <dc:title />
      </cc:Work>
    </rdf:RDF>
  </metadata>
  <g
     inkscape:groupmode="layer"
     id="layer4"
     inkscape:label="Right Arm"
     transform="translate(0,47.637817)">
    <g
       id="g3093"
       transform="matrix(0.9362177,0,0,0.9362177,10.056123,-64.758209)">
      <g
         transform="matrix(0.99876431,0.04969766,-0.04969766,0.99876431,25.835128,-12.464168)"
         inkscape:transform-center-y="116.24049"
         inkscape:transform-center-x="49.69793"
         id="g4319">
        <path
           sodipodi:type="arc"
           style="fill:#999999;fill-opacity:1;stroke:none;display:inline"
           id="path4245-3"
           sodipodi:cx="559.0517"
           sodipodi:cy="631.24152"
           sodipodi:rx="40.086208"
           sodipodi:ry="129.74138"
           d="m 599.13791,631.24152 a 40.086208,129.74138 0 1 1 -80.17242,0 40.086208,129.74138 0 1 1 80.17242,0 z"
           transform="matrix(-0.69083923,-0.39481381,-0.49618492,0.86821686,910.22869,296.56761)"
           inkscape:transform-center-x="-23.890171"
           inkscape:transform-center-y="-35.10105" />
        <path
           style="fill:#4d4d4d;fill-opacity:1;stroke:none;display:inline"
           d="m 182.57158,517.70488 c -77.90722,133.08753 5.48195,123.30828 66.34927,110.66397 44.5335,-9.2512 87.16533,-10.72904 97.75652,-50.06384 10.59119,-39.33479 -18.5187,-106.62321 -61.91695,-118.30851 -43.39824,-11.6853 -81.70276,22.71233 -102.18884,57.70838 z"
           id="path4114-8"
           inkscape:connector-curvature="0"
           sodipodi:nodetypes="sssss" />
        <path
           style="fill:#4d4d4d;fill-opacity:1;stroke:none;display:inline"
           d="m 130.06918,673.08267 c -4.30998,9.29172 -8.09602,24.0722 -8.46919,38.57174 -11.07138,11.14971 -22.974156,10.32083 -27.655286,31.21884 -8.38814,37.4472 37.299066,75.30715 49.429836,62.42474 16.41227,-17.42921 0.68426,-25.9921 8.42244,-28.26187 8.36357,-2.4532 16.19559,30.99838 32.76507,8.37943 6.06828,-8.28378 -13.5734,-24.71228 -6.54643,-32.7891 9.83881,-11.30876 22.72433,-27.30548 30.32182,-42.75692 30.59113,-62.21489 11.15599,-25.89423 -17.15947,-42.07648 -28.31548,-16.18227 -31.15907,-59.27767 -61.10879,5.28962 z"
           id="path4247-0"
           inkscape:connector-curvature="0"
           sodipodi:nodetypes="scssssssss"
           inkscape:transform-center-x="28.526622"
           inkscape:transform-center-y="64.265273" />
      </g>
    </g>
  </g>
  <g
     inkscape:groupmode="layer"
     id="layer6"
     inkscape:label="Cape">
    <path
       style="fill:#aa0000"
       d="m 292.59592,448.97409 229.20012,-3.65745 24.38299,552.27476 C 490.34539,945.42137 338.62501,926.68725 213.3512,985.39991 z"
       id="rect3932-7"
       inkscape:connector-curvature="0"
       sodipodi:nodetypes="ccccc" />
    <path
       style="fill:url(#linearGradient3963);fill-opacity:1"
       d="m 521.18645,445.31667 12.19149,3.65745 25.60214,544.95986 c -7.62516,7.47512 -17.97856,10.40312 -30.47873,9.75322 z"
       id="rect3932"
       inkscape:connector-curvature="0"
       sodipodi:nodetypes="ccccc" />
    <path
       style="fill:#ff0000"
       d="m 225.54267,803.74664 15.84895,-4.8766 -20.72555,175.55755 -24.38299,-3.65745 z"
       id="rect3954"
       inkscape:connector-curvature="0"
       sodipodi:nodetypes="ccccc" />
  </g>
  <g
     inkscape:groupmode="layer"
     id="layer2"
     inkscape:label="Body"
     style="display:inline"
     transform="translate(0,47.637817)">
    <path
       style="fill:#666666;fill-opacity:1;stroke:none"
       d="m 500.84876,623.83163 c -1.66539,94.10426 -9.09352,109.75802 -111.81239,111.74518 -122.96871,2.37889 -187.31245,21.57351 -148.42716,-142.19904 28.9501,-121.92872 61.22496,-143.60205 182.03304,-169.18191 110.87005,-23.47558 79.98433,99.17985 78.20651,199.63577 z"
       id="path4109"
       inkscape:connector-curvature="0"
       sodipodi:nodetypes="sssss" />
    <path
       style="fill:#333333;fill-opacity:1;stroke:none"
       d="m 514.77524,699.80158 c 6.64025,78.44256 13.14558,51.20373 -52.32433,71.57149 -28.90478,8.99231 -83.56387,30.07409 -114.09102,30.30854 -43.69687,0.33565 -75.5331,-21.48067 -92.93177,-24.24436 -74.05333,-11.76298 -36.06798,-29.03303 -41.0633,-83.90928 -8.16425,-89.68888 54.39804,-41.56542 145.88277,-43.91512 86.12998,-2.21216 146.71825,-42.06516 154.52765,50.18873 z"
       id="path4137"
       inkscape:connector-curvature="0"
       sodipodi:nodetypes="sssssss" />
    <path
       style="fill:#333333;fill-opacity:1;stroke:none"
       d="m 508.8433,523.2784 c -41.36758,-11.11142 -148.73829,36.79626 -190.32854,66.06077 -20.58615,-34.56078 -29.24126,-47.9531 -60.77713,-66.06077 0,-27.53266 23.16851,-70.28897 52.05468,-81.15432 56.12708,-21.11185 112.72492,-52.78941 146.98034,-39.88243 30.20926,11.38243 54.37566,72.05848 52.07065,121.03675 z"
       id="path4140"
       inkscape:connector-curvature="0"
       sodipodi:nodetypes="cccssc" />
    <path
       style="fill:#ff0000;fill-opacity:1;stroke:none"
       d="m 285.27184,386.81325 c 13.20173,-12.76095 58.11005,-4.84251 58.11005,-4.84251 0,0 -4.10356,29.74087 -13.72043,43.58254 -4.36156,6.27763 -8.00748,15.77651 -13.66245,17.46155 -12.14364,3.61851 -27.01783,5.63619 -28.30593,-6.96945 -2.18891,-21.42129 -14.52746,-37.53014 -2.42124,-49.23213 z"
       id="rect4210"
       inkscape:connector-curvature="0"
       sodipodi:nodetypes="scssss" />
    <path
       style="fill:url(#linearGradient3101);fill-opacity:1;stroke:none;display:inline"
       d="m 439.357,401.40289 c -8.43694,21.47144 -30.41354,28.06312 -65.86627,33.90738 -15.99814,2.63724 -39.9912,5.21559 -48.84786,2.03209 -9.54919,-3.43242 -6.56675,-31.73249 -6.52634,-44.01031 0.0602,-18.2807 27.51382,-16.15153 63.44503,-16.15153 35.93121,0 71.59343,-10.89261 57.79544,24.22237 z"
       id="path4204"
       inkscape:connector-curvature="0"
       sodipodi:nodetypes="ssssss" />
    <path
       style="fill:#ff0000;fill-opacity:1;stroke:none"
       d="m 435.2235,374.89736 c 19.41086,7.74357 59.37413,-1.54464 59.23217,28.54503 l -39.71348,54.38549 c -18.52839,-1.83964 -42.25229,11.74825 -66.19521,-14.45669 5.27776,-36.21482 27.2231,-43.59955 46.67652,-68.47383 z"
       id="rect4150"
       inkscape:connector-curvature="0"
       sodipodi:nodetypes="ccccc" />
    <path
       sodipodi:type="arc"
       style="fill:#d4aa00;fill-opacity:1;stroke:none"
       id="path4153"
       sodipodi:cx="409.02469"
       sodipodi:cy="520.81293"
       sodipodi:rx="23.773418"
       sodipodi:ry="23.163843"
       d="m 432.79811,520.81293 a 23.773418,23.163843 0 1 1 -47.54684,0 23.773418,23.163843 0 1 1 47.54684,0 z"
       transform="matrix(0.9362177,0,0,0.9362177,24.894186,-41.930421)" />
    <path
       sodipodi:type="arc"
       style="fill:#d4aa00;fill-opacity:1;stroke:none"
       id="path4153-7"
       sodipodi:cx="409.02469"
       sodipodi:cy="520.81293"
       sodipodi:rx="23.773418"
       sodipodi:ry="23.163843"
       d="m 432.79811,520.81293 a 23.773418,23.163843 0 1 1 -47.54684,0 23.773418,23.163843 0 1 1 47.54684,0 z"
       transform="matrix(0.9362177,0,0,0.9362177,-77.432234,-45.884704)" />
    <path
       sodipodi:type="arc"
       style="fill:#999999;fill-opacity:1;stroke:none"
       id="path3900"
       sodipodi:cx="506.89655"
       sodipodi:cy="785.55182"
       sodipodi:rx="13.793103"
       sodipodi:ry="41.810345"
       d="m 520.68965,785.55182 a 13.793103,41.810345 0 1 1 -27.58621,0 13.793103,41.810345 0 1 1 27.58621,0 z"
       transform="matrix(0.9230812,-0.15628395,0.15628395,0.9230812,-97.983334,58.492529)" />
    <path
       style="fill:#ffeeaa"
       d="m 423.57165,441.88583 c 0,5.97143 -9.09872,2.26863 -15.03739,-0.32764 0,0 -8.45421,-2.45476 -11.41486,-2.91586 -7.66027,-1.19303 2.99355,-8.03207 9.63748,-8.03207 6.64393,0 16.81477,5.30415 16.81477,11.27557 z"
       id="path3904"
       inkscape:connector-curvature="0"
       sodipodi:nodetypes="sssss" />
    <path
       style="fill:#ffeeaa;display:inline"
       d="m 322.08698,437.67539 c 0,5.97143 -9.09872,2.26863 -15.03739,-0.32764 0,0 -8.45421,-2.45476 -11.41486,-2.91586 -7.66027,-1.19303 2.99355,-8.03207 9.63748,-8.03207 6.64393,0 16.81477,5.30415 16.81477,11.27557 z"
       id="path3904-1"
       inkscape:connector-curvature="0"
       sodipodi:nodetypes="sssss" />
  </g>
  <g
     inkscape:groupmode="layer"
     id="layer5"
     inkscape:label="Legs"
     transform="translate(0,47.637817)">
    <g
       id="g3085"
       transform="matrix(0.9362177,0,0,0.9362177,-1.3577708,19.704609)">
      <path
         sodipodi:nodetypes="ccccsc"
         inkscape:connector-curvature="0"
         id="path4245-3-4"
         d="m 325.3877,981.36998 c 25.4238,-7.95589 19.7793,-106.07298 23.08065,-152.04766 -14.78385,-5.17408 -14.34119,-4.83682 -34.57857,-9.91971 -19.25639,-3.26296 -17.78702,-7.81009 -37.77615,-12.16227 1.98289,68.09778 -6.25645,125.37225 9.27368,175.49473 3.9582,12.77486 40.59644,9.84053 40.00039,-1.36509 z"
         style="fill:#999999;fill-opacity:1;stroke:none;display:inline" />
      <path
         transform="translate(12.191496,-60.95748)"
         sodipodi:open="true"
         sodipodi:end="0.0075701508"
         sodipodi:start="0"
         d="m 508.99496,959.70679 a 51.204285,92.655373 0 0 1 -0.001,0.70141"
         sodipodi:ry="92.655373"
         sodipodi:rx="51.204285"
         sodipodi:cy="959.70679"
         sodipodi:cx="457.79068"
         id="path4338"
         style="fill:#999999;fill-opacity:1;stroke:none"
         sodipodi:type="arc" />
      <path
         sodipodi:nodetypes="csccccc"
         inkscape:connector-curvature="0"
         id="path4342"
         d="m 514.82772,876.21301 c 20.11597,112.51211 -14.41874,101.18941 -35.96491,101.18941 -21.54617,0 -40.03703,-101.36334 -45.10853,-158.48944 45.7181,-11.93224 48.55493,-16.45852 66.44365,-20.72555 8.13462,20.72555 14.01895,85.59613 14.62979,78.01967 l -39.01278,0.006 z"
         style="fill:#999999;fill-opacity:1;stroke:none" />
      <path
         sodipodi:nodetypes="cccscc"
         inkscape:connector-curvature="0"
         id="rect4345"
         d="m 256.02142,857.29825 102.40857,0 0,148.73625 c -70.73422,-0.9348 -234.8401,47.0876 -204.81714,-2.4383 57.73918,-95.24654 81.72914,-32.99678 121.91496,-46.32768 z"
         style="fill:#4d4d4d;fill-opacity:1;stroke:none" />
      <path
         sodipodi:nodetypes="ccccc"
         inkscape:connector-curvature="0"
         id="rect4348"
         d="m 419.38744,859.73657 119.47667,-7.3149 -29.25959,158.48943 -53.64259,0 z"
         style="fill:#4d4d4d;fill-opacity:1;stroke:none" />
      <path
         sodipodi:nodetypes="csssccc"
         inkscape:connector-curvature="0"
         id="path4351"
         d="m 551.05563,1012.1302 c 0,22.2195 -27.03662,62.1766 -63.39577,62.1766 -36.35916,0 -68.27238,-39.9571 -68.27238,-62.1766 0,-22.21954 29.47492,-40.23197 65.83408,-40.23197 36.35763,0 65.83192,18.01099 65.83407,40.22957 l -65.83407,0 z"
         style="fill:#4d4d4d;fill-opacity:1;stroke:none" />
    </g>
    <path
       transform="matrix(-0.02556241,0.99967323,-0.99967323,-0.02556241,1511.2761,444.40572)"
       style="fill:#b3b3b3"
       d="m 498.58211,1031.8966 c -8.59442,6.2667 -19.01623,9.2668 -44.27178,12.931 -27.59744,4.0039 -45.15388,-2.4491 -44.27177,-12.931 0.95112,-11.3019 14.98696,-15.6441 44.27177,-12.931 21.28821,1.9723 52.79473,6.7164 44.27178,12.931 z"
       id="path3927"
       inkscape:connector-curvature="0"
       sodipodi:nodetypes="sssss" />
  </g>
  <g
     inkscape:groupmode="layer"
     id="layer3"
     inkscape:label="Left arm"
     transform="translate(0,47.637817)">
    <g
       id="g3063"
       transform="matrix(0.9362177,0,0,0.9362177,12.3389,-46.495981)">
      <path
         transform="matrix(0.72198264,-0.33448148,0.42036186,0.90735655,-83.375705,240.8222)"
         d="m 599.13791,631.24152 a 40.086208,129.74138 0 1 1 -80.17242,0 40.086208,129.74138 0 1 1 80.17242,0 z"
         sodipodi:ry="129.74138"
         sodipodi:rx="40.086208"
         sodipodi:cy="631.24152"
         sodipodi:cx="559.0517"
         id="path4245"
         style="fill:#999999;fill-opacity:1;stroke:none"
         sodipodi:type="arc" />
      <path
         sodipodi:nodetypes="sssss"
         inkscape:connector-curvature="0"
         id="path4114"
         d="M 625.23154,504.32739 C 699.24028,640.42072 611.56101,627.7431 547.9135,612.96998 501.34588,602.16124 456.29612,599.2101 447.5899,559.41562 c -8.70623,-39.79448 26.41119,-106.24108 73.11215,-116.45831 46.70096,-10.21722 85.06851,25.58365 104.52949,61.37008 z"
         style="fill:#4d4d4d;fill-opacity:1;stroke:none;display:inline" />
      <path
         sodipodi:nodetypes="scssssssss"
         inkscape:connector-curvature="0"
         id="path4247"
         d="m 661.84517,682.47623 c 3.50216,9.62532 6.01437,24.67476 5.15007,39.15334 10.08055,12.05296 22.01066,12.24183 24.89317,33.46284 5.16516,38.02596 -43.58333,71.85319 -54.5717,57.98351 -14.86666,-18.76492 1.53411,-25.95581 -5.98241,-28.87701 -8.12398,-3.15728 -18.77929,29.50484 -33.36014,5.55567 -5.33999,-8.77097 15.63074,-23.46517 9.3179,-32.11164 -8.83889,-12.10637 -20.31376,-29.14336 -26.56633,-45.18624 -25.17587,-64.59633 -8.90787,-26.75103 20.68408,-40.46044 29.59196,-13.70942 36.09913,-56.40551 60.43536,10.47997 z"
         style="fill:#4d4d4d;fill-opacity:1;stroke:none" />
      <path
         sodipodi:nodetypes="sssss"
         inkscape:connector-curvature="0"
         id="path3892"
         d="m 616.58848,515.13263 c 0,20.23457 -55.85506,37.50277 -48.90338,17.74111 16.98231,-48.27586 -68.20342,-69.60646 -41.97093,-75.36977 19.78184,-4.3461 35.84323,2.19848 46.23796,6.36092 19.44747,7.78749 44.63635,31.03316 44.63635,51.26774 z"
         style="fill:#cccccc;fill-opacity:1;stroke:none" />
      <path
         sodipodi:nodetypes="sssss"
         inkscape:connector-curvature="0"
         id="path3895"
         d="m 656.76454,701.39499 c 7.89377,31.09164 -1.82229,35.91978 -14.27272,21.79678 -4.89785,-5.55582 -8.03062,-12.03803 -13.41064,-24.38299 -20.7852,-47.69357 -0.26961,-41.54186 13.41064,-24.38299 5.64042,7.07466 11.57946,16.36111 14.27272,26.9692 z"
         style="fill:#cccccc;fill-opacity:1;stroke:none" />
      <path
         d="m 681.0345,764.43115 a 7.3275862,11.206897 0 1 1 -14.65518,0 7.3275862,11.206897 0 1 1 14.65518,0 z"
         sodipodi:ry="11.206897"
         sodipodi:rx="7.3275862"
         sodipodi:cy="764.43115"
         sodipodi:cx="673.70691"
         id="path3898"
         style="fill:#cccccc;fill-opacity:1;stroke:none"
         sodipodi:type="arc" />
    </g>
  </g>
  <g
     inkscape:label="Head"
     inkscape:groupmode="layer"
     id="layer1"
     style="display:inline"
     transform="translate(0,47.637817)">
    <g
       id="g3038"
       transform="matrix(0.9362177,0,0,0.9362177,-3.6405498,-39.647641)">
      <path
         sodipodi:nodetypes="sssss"
         inkscape:connector-curvature="0"
         id="path3843"
         d="M 574.50553,273.10259 C 563.28231,338.055 512.46331,454.70239 417.60897,467.93018 148.75393,505.42301 287.18718,392.0608 264.16069,302.41294 232.71565,179.98951 251.21562,61.848744 402.09173,71.378453 c 69.37222,4.38173 200.45861,39.419777 172.4138,201.724137 z"
         style="fill:#ffccaa;fill-opacity:1;stroke:none" />
      <path
         transform="translate(-53.058386,-24.61011)"
         sodipodi:end="6.2831262"
         sodipodi:start="0"
         d="m 475.86206,333.8277 a 12.931034,12.5 0 1 1 0,-7.4e-4 l -12.93103,7.4e-4 z"
         sodipodi:ry="12.5"
         sodipodi:rx="12.931034"
         sodipodi:cy="333.8277"
         sodipodi:cx="462.93103"
         id="path3800"
         style="fill:#deaa87;fill-opacity:1;stroke:none"
         sodipodi:type="arc" />
      <path
         transform="matrix(1,0,0,0.6779661,-1.356547,82.664173)"
         d="m 322.41379,285.98288 a 25,50.862068 0 1 1 -50,0 25,50.862068 0 1 1 50,0 z"
         sodipodi:ry="50.862068"
         sodipodi:rx="25"
         sodipodi:cy="285.98288"
         sodipodi:cx="297.41379"
         id="path3845"
         style="fill:#000000;fill-opacity:1;stroke:none"
         sodipodi:type="arc" />
      <path
         d="m 322.41379,285.98288 a 25,50.862068 0 1 1 -50,0 25,50.862068 0 1 1 50,0 z"
         sodipodi:ry="50.862068"
         sodipodi:rx="25"
         sodipodi:cy="285.98288"
         sodipodi:cx="297.41379"
         id="path3845-5"
         style="fill:#000000;fill-opacity:1;stroke:none"
         sodipodi:type="arc"
         transform="matrix(0.96551724,0,0,0.7118644,81.312901,79.004323)" />
      <path
         sodipodi:nodetypes="ssssss"
         inkscape:connector-curvature="0"
         id="path3885"
         d="m 338.61961,337.07595 c -1.55714,6.28514 -4.56557,21.16487 -32.90488,32.84941 -4.38489,1.80793 -103.5753,19.8526 -107.63904,1.66711 -13.31531,-59.5867 43.36552,-38.28826 83.01598,-55.91809 44.82851,-19.93216 35.42675,-46.77539 42.71948,-67.22579 6.25853,-17.55028 25.01975,47.41121 14.80846,88.62736 z"
         style="fill:url(#linearGradient3056);fill-opacity:1;stroke:none" />
      <path
         sodipodi:nodetypes="ssss"
         inkscape:connector-curvature="0"
         id="path3894"
         d="m 407.85941,383.15813 c -1.93533,20.58312 -30.40741,34.49503 -71.04858,27.51446 -52.57696,-9.03067 -7.25581,-19.47164 0,-25.45984 50.72117,-41.86009 77.51059,-70.78107 71.04858,-2.05462 z"
         style="fill:#ff5555;fill-opacity:1;stroke:none" />
      <path
         transform="matrix(1,0,0,2.0909091,34.85035,-361.77382)"
         d="m 353.44827,303.22424 a 12.068966,9.4827585 0 1 1 -24.13793,0 12.068966,9.4827585 0 1 1 24.13793,0 z"
         sodipodi:ry="9.4827585"
         sodipodi:rx="12.068966"
         sodipodi:cy="303.22424"
         sodipodi:cx="341.3793"
         id="path3897"
         style="fill:#ffffff;fill-opacity:1;stroke:none"
         sodipodi:type="arc" />
      <path
         d="m 353.44827,303.22424 a 12.068966,9.4827585 0 1 1 -24.13793,0 12.068966,9.4827585 0 1 1 24.13793,0 z"
         sodipodi:ry="9.4827585"
         sodipodi:rx="12.068966"
         sodipodi:cy="303.22424"
         sodipodi:cx="341.3793"
         id="path3897-9"
         style="fill:#ffffff;fill-opacity:1;stroke:none"
         sodipodi:type="arc"
         transform="matrix(1,0,0,2.0909091,-39.287574,-366.08416)" />
      <path
         sodipodi:nodetypes="sssss"
         inkscape:connector-curvature="0"
         id="path3917"
         d="m 432.1931,229.88079 c 13.70479,3.8276 -14.9215,4.06317 -50.5978,6.84681 -25.80049,2.01308 -45.71497,11.1856 -49.16068,-13.79289 -0.78073,-5.65969 17.4499,-15.43161 50.5978,-6.8468 29.15602,7.55097 44.07496,12.37251 49.16068,13.79288 z"
         style="fill:#aa0000;fill-opacity:1;stroke:none" />
      <path
         sodipodi:nodetypes="sssss"
         inkscape:connector-curvature="0"
         id="path3917-2"
         d="m 252.27301,233.51423 c -7.80656,3.8276 8.49963,4.06317 28.82167,6.84681 14.69656,2.01308 26.0403,11.1856 28.00306,-13.79289 0.44472,-5.65969 -9.93987,-15.43161 -28.82167,-6.8468 -16.60794,7.55097 -25.10612,12.37251 -28.00306,13.79288 z"
         style="fill:#aa0000;fill-opacity:1;stroke:none" />
      <path
         transform="translate(9.3317734,-2.4995722)"
         sodipodi:end="6.2831262"
         sodipodi:start="0"
         d="m 441.3793,351.06909 a 12.5,12.5 0 1 1 0,-7.4e-4 l -12.5,7.4e-4 z"
         sodipodi:ry="12.5"
         sodipodi:rx="12.5"
         sodipodi:cy="351.06909"
         sodipodi:cx="428.8793"
         id="path3802"
         style="fill:#deaa87;fill-opacity:1;stroke:none"
         sodipodi:type="arc" />
      <path
         transform="translate(64.132242,23.777773)"
         sodipodi:end="6.2831262"
         sodipodi:start="0"
         d="m 425.86206,306.67252 a 12.068966,12.068966 0 1 1 0,-7.2e-4 l -12.06897,7.2e-4 z"
         sodipodi:ry="12.068966"
         sodipodi:rx="12.068966"
         sodipodi:cy="306.67252"
         sodipodi:cx="413.79309"
         id="path3798"
         style="fill:#deaa87;fill-opacity:1;stroke:none"
         sodipodi:type="arc" />
      <path
         sodipodi:nodetypes="csssssssssssssssssssssssssscsssssssssc"
         inkscape:connector-curvature="0"
         id="path3980"
         d="m 588.29864,164.48191 c 0.36172,28.77816 0.97129,83.00475 -4.32746,100.84384 -6.64562,22.37355 -10.42617,47.62992 -13.99282,66.00532 -1.0983,5.65844 6.99869,24.23689 12.8754,22.63178 10.7053,-2.92394 -2.88227,8.27495 -4.37898,8.6546 -7.28677,1.84835 -10.49477,1.20718 -18.81288,-0.59319 -2.97279,-0.64343 -6.2089,-2.04372 -9.85561,-4.55052 -18.1538,-12.4792 -11.48405,-66.13257 -39.58988,-122.91875 -4.72614,-9.54889 -22.92569,64.28872 -29.00152,72.31115 -4.78271,6.31502 -13.18626,9.2274 -25.29765,6.96309 -3.75202,-0.70147 -14.65986,-11.15225 -15.26023,-17.95232 -0.56371,-6.38482 3.88677,-15.86036 4.59749,-18.47224 0.46138,-1.69556 5.55464,18.10195 15.01175,13.22035 9.33713,-4.81967 8.42768,-11.71435 9.19998,-15.89896 0.88788,-4.81086 11.49997,-56.18292 3.7462,-76.62346 -2.01746,-5.31846 -0.0458,-6.82905 -18.71549,-32.34465 -8.33395,-11.38987 -26.95563,-15.41572 -40.59042,-18.01699 -22.66915,-4.32487 -45.54722,3.53559 -52.54689,4.58056 -5.51214,0.8229 -19.96476,7.95415 -31.56847,14.51141 -5.44488,3.07691 -6.14171,2.74855 -11.23972,7.7649 -5.82829,5.73493 -8.2363,6.56949 -8.27944,11.53747 -0.0703,8.09029 1.01657,6.8279 3.00984,8.50572 3.52201,2.96462 8.87641,4.3766 13.02242,1.22472 0,0 14.31321,-8.01684 -0.0247,10.92434 -4.86964,6.43304 -14.83118,6.72209 -26.27023,2.71105 -4.07101,-1.42747 -12.54084,-7.10865 -8.15296,-20.43612 2.0282,-6.1603 -6.99898,-0.19991 -10.96022,2.37254 -3.68728,2.39455 -9.6818,6.16086 -22.76325,9.65148 -27.94525,7.29759 -46.37318,0.46436 -56.73675,-15.135 -10.02139,-15.08431 6.78234,-35.11957 9.85819,-38.46737 4.73741,-5.15628 -1.96863,8.5117 1.32596,15.87605 2.48247,5.54904 11.66607,7.06595 14.08044,6.72265 9.47643,-1.34748 16.63865,-4.66038 20.98322,-8.41623 5.04067,-4.35762 7.31623,-13.62184 6.76686,-23.60837 -1.19543,-21.73055 15.00215,-46.096683 30.16889,-62.423163 29.86582,-32.14956 77.83432,-47.36259 130.87413,-47.36259 100.22064,0 171.74978,49.0861 172.84483,136.206903 z"
         style="fill:#aa0000;fill-opacity:1;stroke:none" />
      <path
         sodipodi:nodetypes="sssss"
         inkscape:connector-curvature="0"
         id="path3939"
         d="m 551.22966,275.6888 c -3.89688,18.64134 -22.10397,33.62069 -34.48276,33.62069 -12.3788,0 -10e-6,-8.54191 -1.72414,-36.2069 -1.18459,-19.00742 -25.2779,-29.10109 3.44828,-41.37931 30.5306,-13.04947 37.01101,23.62351 32.75862,43.96552 z"
         style="fill:url(#linearGradient3058);fill-opacity:1;stroke:none" />
      <path
         sodipodi:nodetypes="cscsc"
         inkscape:connector-curvature="0"
         id="path4004"
         d="m 316.28885,394.6475 c 15.30014,-6.15523 25.49444,-16.41806 35.97216,-24.40569 19.66458,-14.99117 31.60982,-25.71966 43.97313,-28.33459 0.19166,8.13482 0.93354,24.06606 -1.79628,29.96594 -5.81333,12.56417 -86.65566,26.66199 -78.14901,22.77434 z"
         style="fill:#ffffff;fill-opacity:1;stroke:none" />
      <path
         sodipodi:nodetypes="sssssss"
         inkscape:connector-curvature="0"
         id="path3027"
         d="m 430.8648,127.31075 c -11.58414,-1.35774 -134.1224,-19.38816 -130.28842,-36.814295 3.65745,-16.62377 55.81751,10.006135 130.70677,11.951685 29.13433,0.75689 48.77255,-3.975082 68.38149,-8.821369 21.4688,-5.305947 24.66283,-19.761814 37.73156,-11.538483 15.33786,9.651151 22.2168,18.926312 22.58647,29.347532 1.53952,43.39988 -59.02071,24.09076 -129.11787,15.87493 z"
         style="fill:#d45500;fill-opacity:1;stroke:none" />
    </g>
  </g>
</svg>
